<?xml version="1.0" encoding="UTF-8"?>
<svg xmlns="http://www.w3.org/2000/svg" xmlns:xlink="http://www.w3.org/1999/xlink" width="1920" height="1080" viewBox="0 0 1920 1080">
<defs>
<g>
<g id="glyph-0-0">
<path d="M 0.214844 -0.320312 C 0.449219 -0.375 0.613281 -0.449219 0.710938 -0.542969 C 0.808594 -0.636719 0.859375 -0.832031 0.859375 -1.125 L 0.859375 -7.917969 C 0.859375 -8.199219 0.8125 -8.382812 0.722656 -8.46875 C 0.632812 -8.554688 0.460938 -8.628906 0.214844 -8.683594 L 0.214844 -9.011719 L 2.742188 -9.011719 L 2.742188 -1.125 C 2.742188 -0.832031 2.789062 -0.636719 2.882812 -0.546875 C 2.980469 -0.457031 3.148438 -0.378906 3.390625 -0.320312 L 3.390625 0 L 0.214844 0 Z "/>
</g>
<g id="glyph-0-1">
<path d="M 0.292969 -3.054688 C 0.292969 -3.984375 0.578125 -4.757812 1.148438 -5.378906 C 1.71875 -6 2.4375 -6.308594 3.300781 -6.308594 C 4.183594 -6.308594 4.902344 -5.992188 5.464844 -5.359375 C 6.027344 -4.726562 6.308594 -3.957031 6.308594 -3.054688 C 6.308594 -2.164062 6.03125 -1.398438 5.476562 -0.757812 C 4.921875 -0.117188 4.195312 0.203125 3.300781 0.203125 C 2.433594 0.203125 1.714844 -0.109375 1.144531 -0.730469 C 0.578125 -1.355469 0.292969 -2.128906 0.292969 -3.054688 Z M 2.253906 -3.054688 C 2.253906 -2.121094 2.300781 -1.46875 2.394531 -1.09375 C 2.546875 -0.515625 2.847656 -0.226562 3.300781 -0.226562 C 3.730469 -0.226562 4.011719 -0.449219 4.148438 -0.890625 C 4.28125 -1.335938 4.347656 -2.054688 4.347656 -3.054688 C 4.347656 -4.046875 4.277344 -4.765625 4.136719 -5.210938 C 3.996094 -5.65625 3.71875 -5.878906 3.308594 -5.878906 C 2.855469 -5.878906 2.554688 -5.589844 2.402344 -5.011719 C 2.300781 -4.625 2.253906 -3.972656 2.253906 -3.054688 Z "/>
</g>
<g id="glyph-0-2">
<path d="M 3.546875 -6.140625 L 3.546875 -5.8125 C 3.3125 -5.804688 3.136719 -5.777344 3.015625 -5.734375 C 2.898438 -5.691406 2.839844 -5.597656 2.839844 -5.457031 C 2.839844 -5.421875 2.855469 -5.355469 2.886719 -5.261719 C 2.917969 -5.167969 2.945312 -5.101562 2.960938 -5.058594 L 3.964844 -2.5 L 4.070312 -2.5 L 4.96875 -4.777344 C 5.011719 -4.886719 5.046875 -4.996094 5.074219 -5.109375 C 5.101562 -5.222656 5.117188 -5.3125 5.117188 -5.378906 C 5.117188 -5.566406 5.054688 -5.683594 4.929688 -5.730469 C 4.804688 -5.78125 4.621094 -5.808594 4.382812 -5.8125 L 4.382812 -6.140625 L 6.398438 -6.140625 L 6.398438 -5.8125 C 6.222656 -5.800781 6.078125 -5.742188 5.964844 -5.640625 C 5.851562 -5.539062 5.738281 -5.355469 5.632812 -5.089844 L 3.484375 0.1875 L 3.144531 0.1875 L 1.542969 -3.761719 C 1.429688 -4.039062 1.320312 -4.300781 1.214844 -4.542969 C 1.109375 -4.785156 0.996094 -5.023438 0.878906 -5.253906 C 0.757812 -5.488281 0.660156 -5.636719 0.59375 -5.695312 C 0.523438 -5.757812 0.398438 -5.796875 0.214844 -5.8125 L 0.214844 -6.140625 Z "/>
</g>
<g id="glyph-0-3">
<path d="M 0.300781 -3.058594 C 0.300781 -4.082031 0.570312 -4.878906 1.117188 -5.445312 C 1.660156 -6.011719 2.316406 -6.296875 3.085938 -6.296875 C 3.523438 -6.296875 3.9375 -6.179688 4.324219 -5.949219 C 4.710938 -5.71875 5.007812 -5.402344 5.214844 -4.992188 C 5.371094 -4.683594 5.480469 -4.285156 5.539062 -3.796875 C 5.570312 -3.566406 5.585938 -3.390625 5.585938 -3.269531 L 2.1875 -3.269531 C 2.21875 -2.734375 2.304688 -2.273438 2.449219 -1.882812 C 2.707031 -1.148438 3.167969 -0.78125 3.820312 -0.78125 C 4.132812 -0.78125 4.429688 -0.878906 4.707031 -1.074219 C 4.875 -1.191406 5.085938 -1.390625 5.339844 -1.667969 L 5.644531 -1.476562 C 5.230469 -0.800781 4.753906 -0.328125 4.210938 -0.0664062 C 3.859375 0.105469 3.457031 0.1875 3 0.1875 C 2.34375 0.1875 1.730469 -0.0703125 1.160156 -0.585938 C 0.585938 -1.101562 0.300781 -1.925781 0.300781 -3.058594 Z M 3.945312 -3.761719 C 3.9375 -4.546875 3.875 -5.097656 3.761719 -5.410156 C 3.648438 -5.722656 3.425781 -5.878906 3.085938 -5.878906 C 2.738281 -5.878906 2.5 -5.699219 2.371094 -5.339844 C 2.246094 -4.980469 2.171875 -4.453125 2.15625 -3.761719 Z "/>
</g>
</g>
</defs>
<g fill="rgb(100%, 43.137255%, 43.137255%)" fill-opacity="1">
<use xlink:href="#glyph-0-0" x="30" y="30"/>
<use xlink:href="#glyph-0-1" x="34" y="30"/>
<use xlink:href="#glyph-0-2" x="41" y="30"/>
<use xlink:href="#glyph-0-3" x="48" y="30"/>
</g>
</svg>
